<svg width="224" height="42" viewBox="0 0 224 42" fill="none" xmlns="http://www.w3.org/2000/svg">
<path d="M16.1182 18.2729C14.5925 7.649 19.3244 1.94822 30.3138 1.17058C41.3032 0.392949 46.1266 8.54403 44.7842 25.6238C39.9488 36.7667 31.2354 41.7841 18.6441 40.6758C6.05286 39.5676 0.861244 35.8192 3.0693 29.4309L1.05244 27.0603C1.72121 23.64 2.82256 22.1155 4.3565 22.4868C5.89043 22.8581 6.17834 22.5562 5.2202 21.5811C5.29346 17.5756 7.1281 16.4729 10.7241 18.2729C14.3201 20.073 16.1182 20.073 16.1182 18.2729Z" fill="white"/>
<path d="M10.3367 31.179C9.58992 32.2926 8.32053 32.585 6.52851 32.0561C5.34019 31.7054 4.87636 32.3799 5.49323 33.0427C6.41211 34.03 8.15575 35.0329 10.7241 36.0513C24.0432 40.3797 33.9366 37.903 40.4042 28.621C43.1056 24.744 43.8159 19.7058 42.535 13.5065L40.8427 14.1848L39.1812 22.2948H33.722C31.9218 27.3418 27.9667 30.5956 21.8567 32.0561C17.9874 32.9811 14.2656 32.6544 10.6914 31.0761L10.6914 31.0761C10.5639 31.0198 10.4143 31.0632 10.3367 31.179Z" fill="#30D5FE"/>
<path d="M83.1594 34.8629L83.0904 20.8936L76.6974 31.6438C76.5511 31.8904 76.2855 32.0414 75.9989 32.0408H73.6763C73.3933 32.0417 73.1305 31.8944 72.9835 31.6525L66.625 21.2618V34.86C66.6234 35.3074 66.2614 35.6696 65.8144 35.6712H60.6977C60.2495 35.6696 59.8871 35.3056 59.8871 34.8571V9.57945C59.8871 9.13142 60.25 8.76821 60.6977 8.76821H65.435C65.7178 8.76787 65.9803 8.91505 66.1277 9.15657L74.9497 23.661L83.5561 9.1652C83.7051 8.91413 83.9773 8.76251 84.269 8.76821H89.0005C89.4482 8.76821 89.8111 9.13142 89.8111 9.57945L89.8801 34.8571C89.8817 35.0733 89.7969 35.2811 89.6448 35.4345C89.4926 35.5878 89.2855 35.6741 89.0695 35.6741H83.9816C83.7648 35.6764 83.5561 35.592 83.4018 35.4397C83.2474 35.2874 83.1602 35.0798 83.1594 34.8629Z" fill="white"/>
<path d="M95.1147 19.5444L100.418 16.4404C100.68 16.2865 101.004 16.2848 101.267 16.4358C101.53 16.5868 101.692 16.8675 101.692 17.1711V34.8255C101.692 35.2966 101.314 35.6806 100.844 35.6885H95.5401C95.0706 35.6791 94.6949 35.2955 94.695 34.8255V20.2751C94.6933 19.9737 94.8536 19.6946 95.1147 19.5444Z" fill="white"/>
<path d="M108.542 35.4325C107.427 35.1878 106.345 34.8142 105.316 34.3192C104.928 34.1256 104.76 33.6611 104.934 33.2634L106.371 29.961C106.459 29.7588 106.626 29.6017 106.833 29.5261C107.04 29.4506 107.269 29.4632 107.467 29.5611C108.267 29.9577 109.106 30.27 109.97 30.4931C111.184 30.8192 112.434 30.9865 113.69 30.9908C114.82 30.9908 115.625 30.8757 116.102 30.6399C116.528 30.4845 116.814 30.0814 116.82 29.6273C116.82 29.1842 116.533 28.8707 115.958 28.6866C115.059 28.4372 114.142 28.2583 113.216 28.1515C111.841 27.9986 110.48 27.7399 109.145 27.3777C108.039 27.0629 107.04 26.4488 106.259 25.6027C105.449 24.7436 105.043 23.5392 105.043 21.9896C105.031 20.756 105.437 19.5546 106.193 18.5807C106.96 17.5853 108.071 16.799 109.528 16.2218C111.208 15.6073 112.988 15.3146 114.777 15.3588C116.225 15.3579 117.67 15.5064 119.088 15.8018C120.063 15.9933 121.014 16.2894 121.926 16.6849C122.337 16.8673 122.524 17.3485 122.342 17.7608L120.905 21.0259C120.813 21.2279 120.643 21.384 120.434 21.4583C120.225 21.5325 119.994 21.5187 119.796 21.42C118.235 20.6958 116.534 20.3255 114.814 20.3355C113.706 20.3355 112.896 20.464 112.382 20.721C111.869 20.9779 111.611 21.3164 111.609 21.7364C111.603 22.2044 111.88 22.5342 112.44 22.726C113.357 22.9864 114.293 23.1787 115.239 23.3014C116.621 23.4956 117.988 23.7839 119.33 24.1644C120.41 24.4835 121.383 25.0888 122.147 25.9163C122.942 26.7621 123.341 27.9473 123.343 29.4719C123.351 30.6935 122.946 31.882 122.193 32.8434C121.426 33.8388 120.303 34.6193 118.824 35.1851C117.104 35.7935 115.287 36.0859 113.463 36.0481C111.804 36.0328 110.153 35.8262 108.542 35.4325Z" fill="white"/>
<path d="M130.644 34.6788C127.2 33.0035 125.043 29.4774 125.119 25.6459C125.043 21.8323 127.204 18.327 130.644 16.6849C132.493 15.7825 134.529 15.3292 136.586 15.3616C138.845 15.3616 140.797 15.8468 142.441 16.8173C143.773 17.5794 144.861 18.7048 145.577 20.0622C145.79 20.4798 145.63 20.9905 145.218 21.2129L141.234 23.2467C140.854 23.4396 140.39 23.3157 140.156 22.959C139.271 21.5955 138.068 20.9137 136.548 20.9137C135.376 20.879 134.242 21.3382 133.424 22.1794C132.602 23.0175 132.191 24.173 132.191 25.6459C132.191 27.1188 132.602 28.2925 133.424 29.167C134.237 30.0101 135.367 30.4716 136.537 30.4385C138.059 30.4385 139.261 29.7557 140.145 28.3903C140.378 28.0336 140.842 27.9097 141.222 28.1026L145.209 30.1422C145.621 30.3646 145.781 30.8753 145.569 31.2929C144.853 32.6517 143.765 33.7783 142.433 34.5407C140.788 35.5111 138.837 35.9963 136.577 35.9963C134.523 36.0349 132.489 35.5832 130.644 34.6788Z" fill="white"/>
<path d="M167.496 17.5738C169.006 19.0467 169.761 21.2704 169.761 24.2449V34.8686C169.761 35.3135 169.401 35.6741 168.956 35.6741H163.566C163.123 35.6725 162.763 35.3128 162.762 34.8686V25.3755C162.762 22.6484 161.669 21.2848 159.485 21.2848C158.395 21.2367 157.338 21.6676 156.593 22.4642C155.868 23.2496 155.506 24.4319 155.506 26.0026V34.8571C155.508 35.0732 155.424 35.2812 155.271 35.4343C155.119 35.5874 154.911 35.6728 154.696 35.6712H149.311C148.868 35.6697 148.508 35.31 148.507 34.8658V12.879C148.507 12.5924 148.659 12.3272 148.906 12.1829L154.296 9.01849C154.545 8.87351 154.851 8.87231 155.101 9.01534C155.351 9.15837 155.505 9.42388 155.506 9.71178V17.5479C156.28 16.8272 157.196 16.2748 158.194 15.9255C159.26 15.5516 160.382 15.3648 161.511 15.3731C163.989 15.3655 165.984 16.099 167.496 17.5738Z" fill="white"/>
<path d="M174.53 19.5616L179.925 16.3972C180.173 16.2516 180.479 16.2498 180.728 16.3925C180.977 16.5352 181.13 16.8005 181.13 17.0877V34.8686C181.131 35.0812 181.047 35.2854 180.897 35.436C180.747 35.5866 180.543 35.6712 180.331 35.6712H174.947C174.504 35.6712 174.145 35.3119 174.145 34.8686V20.2492C174.144 19.9682 174.29 19.7072 174.53 19.5616Z" fill="white"/>
<path d="M205.207 27.4525H191.455C191.714 28.4321 192.329 29.2796 193.18 29.8286C194.137 30.4131 195.245 30.7023 196.365 30.66C197.212 30.6787 198.055 30.5412 198.851 30.2544C199.413 30.0303 199.942 29.7313 200.424 29.3655C200.758 29.1277 201.216 29.1731 201.496 29.4719L204.083 32.1731C204.24 32.3383 204.323 32.56 204.314 32.7876C204.305 33.0152 204.204 33.2294 204.034 33.3814C202.128 35.1304 199.496 36.0049 196.141 36.0049C194.014 36.0498 191.906 35.5956 189.986 34.6788C186.521 33.0224 184.346 29.4884 184.427 25.6459C184.352 21.8842 186.423 18.4078 189.765 16.6849C193.237 14.9498 197.315 14.9158 200.815 16.5929C202.412 17.3942 203.747 18.6346 204.664 20.1686C205.64 21.8518 206.13 23.7726 206.081 25.7178C206.081 25.7523 206.061 26.0774 206.021 26.6873C205.995 27.1177 205.638 27.4532 205.207 27.4525ZM192.726 21.2589C191.984 21.9051 191.495 22.7941 191.346 23.7674H199.521C199.373 22.7941 198.884 21.9051 198.141 21.2589C196.544 20.032 194.323 20.032 192.726 21.2589Z" fill="white"/>
<path d="M216.944 16.4318H220.876C221.095 16.4318 221.305 16.5193 221.459 16.675C221.613 16.8306 221.698 17.0413 221.696 17.2603V20.8447C221.694 21.2968 221.328 21.6629 220.876 21.6645H217.139V34.8514C217.14 35.0693 217.054 35.2786 216.9 35.433C216.747 35.5873 216.538 35.6741 216.32 35.6741H210.95C210.733 35.6741 210.524 35.5873 210.37 35.433C210.216 35.2786 210.13 35.0693 210.131 34.8514V21.6645H208.041C207.588 21.6645 207.221 21.2979 207.219 20.8447V17.2603C207.219 17.0423 207.306 16.8334 207.46 16.6795C207.615 16.5257 207.824 16.4396 208.041 16.4404H210.131V15.9226C210.131 13.4908 210.861 11.5615 212.322 10.1347C213.782 8.70781 215.827 7.99534 218.456 7.99726C219.325 7.99468 220.192 8.08143 221.043 8.25616C221.517 8.34943 221.98 8.49014 222.426 8.67616C222.821 8.84908 223.016 9.29891 222.871 9.70603L221.673 13.1121C221.596 13.3208 221.44 13.4902 221.237 13.5821C221.035 13.6741 220.805 13.6809 220.597 13.6011C220.173 13.4499 219.726 13.3721 219.275 13.371C218.631 13.3286 218 13.5716 217.55 14.0355C217.146 14.4785 216.943 15.1296 216.941 15.9888L216.944 16.4318Z" fill="white"/>
<path d="M97.0694 13.6788C96.0599 13.5467 95.1614 12.9721 94.6174 12.111C94.0388 11.2707 93.8649 10.216 94.1431 9.23424C94.4057 8.20822 95.0706 7.3452 96.138 6.64521C97.2016 5.94041 98.2509 5.65562 99.2771 5.78219C100.272 5.89289 101.162 6.45362 101.692 7.30397C102.287 8.16159 102.479 9.23602 102.218 10.2468C101.959 11.2844 101.297 12.1551 100.231 12.8589C99.1659 13.5627 98.1119 13.836 97.0694 13.6788Z" fill="white"/>
<path d="M176.542 13.6788C175.535 13.5443 174.639 12.9701 174.096 12.111C173.519 11.2701 173.345 10.2161 173.622 9.23424C173.886 8.20821 174.551 7.3452 175.617 6.6452C176.682 5.9452 177.729 5.65753 178.758 5.78219C179.753 5.8929 180.642 6.45373 181.17 7.30397C181.768 8.16053 181.96 9.23612 181.696 10.2468C181.441 11.2844 180.78 12.1551 179.713 12.8589C178.645 13.5627 177.588 13.836 176.542 13.6788Z" fill="white"/>
<path d="M3.9857 30.9736C3.78702 30.9742 3.59274 30.915 3.42803 30.8038C2.80375 30.388 2.20389 29.9366 1.63144 29.4518C-0.252213 27.8686 -0.496739 25.057 1.08528 23.1719C2.66729 21.2869 5.47677 21.0421 7.36042 22.6253C8.43731 23.5332 9.66257 24.2485 10.9824 24.7397C11.494 24.9397 11.7509 25.5134 11.5594 26.0286C11.3679 26.5439 10.7988 26.8101 10.281 26.6269C8.75029 26.0532 7.32966 25.2202 6.08125 24.1644C5.41371 23.5991 4.49554 23.4332 3.67261 23.7291C2.84968 24.025 2.247 24.7378 2.09161 25.599C1.93621 26.4601 2.2517 27.3389 2.91924 27.9041C3.4345 28.3406 3.97385 28.7478 4.53474 29.1238C4.90297 29.3701 5.06697 29.8284 4.93868 30.2526C4.81038 30.6769 4.41997 30.9672 3.97707 30.9678L3.9857 30.9736Z" fill="#4F49FE"/>
<path d="M22.0149 41.9626C18.6381 41.9585 15.281 41.4494 12.0546 40.4523C11.9051 40.4063 11.5774 40.3056 11.1922 40.1646C8.45696 39.2315 5.87382 37.9007 3.52576 36.2149C2.5648 35.527 1.91642 34.4851 1.72341 33.3186C1.5304 32.1521 1.80857 30.9566 2.49667 29.9955C3.64649 28.3816 6.11861 27.9099 8.49586 28.8448C9.0027 29.0554 9.24743 29.6336 9.04592 30.1444C8.8444 30.6552 8.271 30.9102 7.7571 30.7175C6.08124 30.0559 4.64109 30.4529 4.13229 31.1634C3.35079 32.2637 3.60814 33.7896 4.7072 34.5723C6.89415 36.1447 9.29993 37.3873 11.8476 38.2603C12.2012 38.3811 12.5059 38.476 12.6467 38.5192C22.9548 41.6835 30.9346 38.5192 31.0151 38.4962C37.9428 35.6827 44.8963 27.8523 44.7842 18.3592C44.7411 14.7777 43.873 8.23603 38.5464 4.59411C32.8462 0.696164 22.8859 1.02986 18.5884 7.29822C15.5845 11.6766 16.6653 16.9553 17.269 19.0208C17.3717 19.3661 17.2825 19.7401 17.035 20.0017C16.7875 20.2634 16.4193 20.3731 16.0692 20.2894C15.719 20.2057 15.44 19.9415 15.3373 19.5962C14.6531 17.2545 13.4401 11.2537 16.9298 6.17055C21.9488 -1.15069 33.079 -1.58219 39.6819 2.92562C45.75 7.07959 46.7475 14.3548 46.7964 18.3218C46.92 28.7441 39.3225 37.3081 31.7711 40.3718C31.5383 40.4667 27.7553 41.9626 22.0149 41.9626Z" fill="#4F49FE"/>
<path d="M41.237 12.8273C41.4319 14.344 41.4675 15.877 41.3433 17.4012C41.1134 20.1427 40.9495 22.1162 39.2967 23.2899C38.49 23.8279 37.541 24.1124 36.5716 24.1069C35.5339 24.1069 34.5278 23.7789 33.9126 23.0367C33.1537 22.1219 33.3377 21.0748 33.5849 19.7458C33.6798 19.2222 33.789 18.6296 33.8724 17.9104C34.0583 16.39 34.1031 15.2578 34.0693 13.7218C34.062 13.3865 34.5651 13.4705 35.5789 13.9738C35.7705 14.0855 35.8663 14.2743 35.8663 14.5402C35.8663 14.939 36.0376 16.3234 35.381 21.3183C35.29 22.0105 37.7788 22.6896 38.8306 20.6727C39.3557 18.4302 39.5477 16.3341 39.4064 14.3844" fill="#4F49FE"/>
<path d="M5.29362 23.7012C4.97056 23.7006 4.66723 23.5456 4.47725 23.2841C3.16345 21.4314 3.45155 18.8865 5.1462 17.3749C6.84084 15.8633 9.40015 15.8685 11.0887 17.3868C12.4915 18.6727 14.36 19.1129 15.7426 18.457C16.8924 17.9219 17.4242 16.7568 17.6024 16.2822C17.8131 15.7863 18.3765 15.5443 18.8808 15.7331C19.3851 15.9218 19.6515 16.4745 19.4853 16.987C19.2208 17.6946 18.4102 19.4322 16.6107 20.2808C14.4979 21.2675 11.724 20.7037 9.74342 18.8712C8.74862 17.962 7.20644 18.0288 6.29396 19.0208C5.51287 19.8756 5.4373 21.1612 6.11287 22.1018C6.3334 22.4085 6.36435 22.8128 6.19307 23.1495C6.02179 23.4863 5.67695 23.6992 5.29937 23.7012H5.29362Z" fill="#4F49FE"/>
<path d="M43.0566 30.4648C42.6074 31.2075 42.2547 31.8642 41.6825 32.5169C40.596 33.6561 38.8523 34.4122 36.7136 34.4122C35.1184 34.4217 33.5499 34.0024 32.1718 33.1982C29.4008 31.5527 27.7703 28.2151 27.9399 24.8205C27.9916 24.0083 28.6281 23.8315 28.7688 23.8795C28.9095 23.9275 28.7467 25.7874 29.8546 28.1127C30.9625 30.438 35.381 34.5396 41.4169 29.8521C41.4169 29.8521 41.9635 30.0563 43.0566 30.4648Z" fill="#4F49FE"/>
<path d="M30.42 11.3911C30.0134 9.30366 30.7743 7.92121 32.7027 7.24374C34.6311 6.56628 36.1283 7.25751 37.1943 9.31742C38.0301 11.9592 39.2604 12.9752 40.8853 12.3654C41.917 11.9781 42.5283 12.1718 42.7193 12.9465C42.857 13.3388 42.6777 13.6493 42.1813 13.878C41.4368 14.2209 38.3825 15.7628 36.8817 13.3899C35.381 11.017 35.6083 9.03073 33.6011 9.17408C32.2629 9.26964 31.2025 10.0086 30.42 11.3911Z" fill="#4F49FE"/>
</svg>
