<?xml version="1.0" standalone="no"?>
<!DOCTYPE svg PUBLIC "-//W3C//DTD SVG 20010904//EN"
 "http://www.w3.org/TR/2001/REC-SVG-20010904/DTD/svg10.dtd">
<svg version="1.0" xmlns="http://www.w3.org/2000/svg"
 width="512.000000pt" height="512.000000pt" viewBox="0 0 512.000000 512.000000"
 preserveAspectRatio="xMidYMid meet">
<metadata>
Created by potrace 1.14, written by Peter Selinger 2001-2017
</metadata>
<g transform="translate(0.000000,512.000000) scale(0.100000,-0.100000)"
fill="#000000" stroke="none">
<path d="M0 2560 l0 -2560 2560 0 2560 0 0 2560 0 2560 -2560 0 -2560 0 0
-2560z m1505 961 c251 -65 437 -239 474 -445 39 -213 -24 -416 -181 -581 -138
-146 -277 -200 -493 -193 -169 6 -235 37 -235 112 0 33 14 40 145 66 135 27
180 46 240 101 90 83 129 205 123 379 -3 89 -8 113 -31 156 -75 146 -265 214
-512 185 -133 -15 -207 -38 -366 -112 -170 -80 -238 -81 -209 -3 64 168 381
343 654 363 125 8 295 -4 391 -28z m1891 -2 c126 -60 193 -201 194 -412 l0
-69 43 51 c58 68 110 108 187 145 60 29 73 31 170 31 85 0 113 -4 150 -21 162
-75 212 -276 154 -619 -8 -49 -40 -196 -71 -325 -65 -275 -73 -360 -34 -391
13 -10 31 -19 41 -19 33 0 135 79 257 199 128 127 155 142 173 95 13 -33 13
-109 0 -155 -16 -56 -80 -154 -145 -221 -202 -206 -488 -278 -621 -156 -63 58
-84 108 -84 201 0 94 6 124 86 417 79 293 105 414 107 511 2 99 -15 129 -74
129 -55 0 -105 -28 -166 -93 -133 -140 -263 -401 -324 -647 -20 -83 -23 -117
-22 -264 2 -148 0 -173 -17 -206 -36 -70 -127 -128 -216 -137 -50 -5 -55 -4
-87 28 -35 35 -57 102 -57 173 0 62 31 199 107 476 104 379 134 526 140 685 6
150 -4 204 -47 247 -24 23 -37 28 -77 28 -199 -1 -390 -298 -527 -820 -51
-193 -51 -200 -21 -376 31 -181 29 -244 -11 -311 -20 -36 -39 -50 -107 -83
-147 -71 -218 -63 -260 28 -20 42 -22 63 -21 202 1 168 31 396 99 765 76 409
86 475 80 523 -10 74 -24 110 -52 132 -44 35 -81 26 -173 -40 -102 -72 -136
-82 -163 -49 -24 30 -19 107 13 168 61 120 235 210 406 211 178 0 270 -88 291
-284 l8 -69 47 74 c100 159 240 261 378 277 89 10 187 -2 246 -29z m-2343
-403 c12 -84 -13 -281 -73 -576 -58 -288 -60 -301 -75 -579 -9 -156 -20 -291
-24 -300 -30 -55 -101 -87 -215 -97 -147 -13 -159 3 -158 236 0 243 47 493
154 817 104 317 219 513 323 548 49 16 60 8 68 -49z"/>
</g>
</svg>
